Coordinates
version=1
nRows=10
nColumns=63
inDegrees=yes

Units are S.I. units (second, meters, Newtons, ...)
If the header above contains a line with 'inDegrees', this indicates whether rotational values are in degrees (yes) or radians (no).

endheader
time	pelvis_tilt	pelvis_list	pelvis_rotation	pelvis_tx	pelvis_ty	pelvis_tz	hip_flexion_r	hip_adduction_r	hip_rotation_r	knee_angle_r	knee_angle_r_beta	ankle_angle_r	subtalar_angle_r	mtp_angle_r	hip_flexion_l	hip_adduction_l	hip_rotation_l	knee_angle_l	knee_angle_l_beta	ankle_angle_l	subtalar_angle_l	mtp_angle_l	L5_S1_Flex_Ext	L5_S1_Lat_Bending	L5_S1_axial_rotation	L4_L5_Flex_Ext	L4_L5_Lat_Bending	L4_L5_axial_rotation	L3_L4_Flex_Ext	L3_L4_Lat_Bending	L3_L4_axial_rotation	L2_L3_Flex_Ext	L2_L3_Lat_Bending	L2_L3_axial_rotation	L1_L2_Flex_Ext	L1_L2_Lat_Bending	L1_L2_axial_rotation	L1_T12_Flex_Ext	L1_T12_Lat_Bending	L1_T12_axial_rotation	Abs_r3	Abs_r2	Abs_r1	Abs_t1	Abs_t2	neck_flexion	neck_bending	neck_rotation	arm_flex_r	arm_add_r	arm_rot_r	elbow_flex_r	pro_sup_r	wrist_flex_r	wrist_dev_r	arm_flex_l	arm_add_l	arm_rot_l	elbow_flex_l	pro_sup_l	wrist_flex_l	wrist_dev_l
      1.01694915	     -2.37098192	    -28.68535320	     86.75507726	      0.16915627	      0.99878964	      0.11517770	     38.48193779	      0.08158019	      8.82991573	     21.96434401	      0.38335012	     36.30918577	     -9.33633694	      0.00000000	     33.26669469	      2.18640298	     -6.74670627	     13.73049921	      0.23964242	     36.91042214	      3.44994088	      0.00000000	      0.20435861	      0.69216923	     -0.38138122	      0.37951438	      0.92058507	     -0.40521754	      0.33574077	      1.68294026	     -0.40521754	      0.23356146	      1.68294026	     -0.33370857	      0.18976741	      1.41147149	     -0.30987224	      0.11677051	      1.07217013	     -0.28603591	      1.45971315	      7.82995674	     -2.12112792	      0.00000000	      0.00000000	     28.31350568	     -2.35475681	     -7.87484662	      4.70211447	     -9.19572612	     46.19202917	     45.98784449	     75.96215241	     -0.29764663	      6.15262403	      6.40530489	     -7.01679853	     49.89604315	     50.88133935	     84.82319762	     -2.60752167	     -2.12884446
      1.03389831	     -2.72728408	    -29.82829789	     86.70367753	      0.16884106	      0.99381621	      0.11854451	     40.41393261	     -0.09894930	      9.03732328	     23.07493363	      0.40273357	     37.11889492	     -9.48735240	      0.00000000	     34.84424806	      2.39268405	     -6.74601813	     14.02161410	      0.24472333	     37.28047882	      3.67705657	      0.00000000	      0.26022132	      0.71251490	     -0.51517641	      0.48325701	      0.94764481	     -0.54737493	      0.42751761	      1.73240872	     -0.54737493	      0.29740695	      1.73240872	     -0.45077935	      0.24164152	      1.45296038	     -0.41858083	      0.14869046	      1.10368557	     -0.38638230	      1.85873486	      8.06011101	     -2.86525661	      0.00000000	      0.00000000	     28.36986147	     -3.00674300	     -9.08745652	      4.98066615	     -9.22636069	     46.73334746	     45.62906341	     76.46965721	     -0.65105674	      6.14782325	      6.51603676	     -6.37603775	     50.22452318	     49.63718335	     85.36995223	     -3.21485992	     -2.43497965
      1.05084746	     -3.28255660	    -30.94189908	     86.57137368	      0.16905617	      0.98934739	      0.12184084	     42.20350676	     -0.40363898	      9.34551841	     23.95555547	      0.41810332	     38.08445796	     -9.45241615	      0.00000000	     36.36579820	      2.72005548	     -6.96860217	     14.26640533	      0.24899575	     37.56680237	      4.00612068	      0.00000000	      0.30168845	      0.69986526	     -0.65355331	      0.56026562	      0.93082080	     -0.69440040	      0.49564395	      1.70165240	     -0.69440040	      0.34479973	      1.70165240	     -0.57185915	      0.28014789	      1.42716524	     -0.53101207	      0.17238478	      1.08409129	     -0.49016499	      2.15493042	      7.91701583	     -3.63486747	      0.00000000	      0.00000000	     28.40087201	     -3.67324023	    -10.58759308	      5.39277259	     -9.04834923	     47.38323148	     45.15891169	     77.29356814	     -1.16917884	      6.16589420	      6.69683008	     -5.99219184	     50.70904247	     48.51512177	     86.10498579	     -4.05630243	     -2.99725347
      1.06779661	     -4.14559366	    -31.87224777	     86.14855853	      0.16978476	      0.98563720	      0.12540506	     43.80738604	     -0.85702158	      9.73682540	     24.68602956	      0.43085250	     39.22618824	     -8.99778411	      0.00000000	     37.62179376	      3.18027063	     -7.67995781	     14.28291128	      0.24928383	     37.83752152	      4.68803519	      0.00000000	      0.29159515	      0.64573447	     -0.76051677	      0.54152136	      0.85882684	     -0.80804907	      0.47906168	      1.57003878	     -0.80804907	      0.33326410	      1.57003878	     -0.66545217	      0.27077526	      1.31678172	     -0.61791988	      0.16661747	      1.00024269	     -0.57038758	      2.08283502	      7.30467742	     -4.22976612	      0.00000000	      0.00000000	     28.41263282	     -4.03559467	    -12.16639667	      5.91554777	     -8.65874339	     47.88275250	     44.81390460	     78.49884862	     -1.80142147	      6.16808561	      6.98349285	     -6.01073339	     51.25769315	     47.90520565	     86.81735126	     -5.19583857	     -3.89495227
      1.08474576	     -4.65413442	    -32.55066181	     85.90058484	      0.17005401	      0.98313348	      0.12911072	     44.86246975	     -1.09342638	     10.11451569	     24.82401941	      0.43326087	     39.88246418	     -8.85285436	      0.00000000	     38.55611854	      3.47761012	     -7.66427945	     14.09133723	      0.24594023	     38.07052794	      4.95393658	      0.00000000	      0.21715147	      0.64007324	     -0.86796910	      0.40327200	      0.85129740	     -0.92221717	      0.35675816	      1.55627407	     -0.92221717	      0.24818242	      1.55627407	     -0.75947296	      0.20164686	      1.30523734	     -0.70522489	      0.12408035	      0.99147344	     -0.65097682	      1.55109127	      7.24063646	     -4.82738373	      0.00000000	      0.00000000	     28.41097210	     -3.88028676	    -12.36675857	      6.46064996	     -8.60146114	     47.98532640	     45.02529039	     78.71240684	     -1.76919695	      6.26982491	      7.45827042	     -5.81106033	     51.40182883	     47.41764266	     87.06500265	     -5.36765016	     -3.97456845
      1.10169492	     -5.90734539	    -33.57323682	     85.40796564	      0.17053230	      0.98021479	      0.13384575	     46.70787986	     -1.97325229	     10.06835073	     25.47895581	      0.44469167	     40.74149887	     -8.26909623	      0.00000000	     39.97063979	      4.31253321	     -8.20967519	     13.87665935	      0.24219339	     38.13640172	      5.72631749	      0.00000000	      0.19800019	      0.55246828	     -1.03234735	      0.36770615	      0.73478282	     -1.09686906	      0.32529451	      1.34327139	     -1.09686906	      0.22629442	      1.34327139	     -0.90330393	      0.18386298	      1.12659332	     -0.83878222	      0.11313731	      0.85577337	     -0.77426052	      1.41429555	      6.24963172	     -5.74160628	      0.00000000	      0.00000000	     28.39839528	     -3.08325841	    -12.28550833	      7.22127370	     -8.25251773	     48.69275861	     45.48771850	     79.63186697	     -1.61677228	      7.00596910	      7.50703680	     -6.42969634	     51.18002469	     47.92614277	     87.57057580	     -6.11339174	     -5.27682020
      1.11864407	     -7.09260664	    -34.36071861	     84.75695349	      0.17035451	      0.97810170	      0.13835008	     48.03123164	     -2.83395332	      9.93829451	     25.51029021	      0.44523856	     41.27874710	     -7.22351590	      0.00000000	     41.10623221	      5.04183256	     -8.90841399	     13.52584737	      0.23607057	     38.27587151	      6.62039431	      0.00000000	      0.13563994	      0.49328962	     -1.17835948	      0.25189693	      0.65607520	     -1.25200695	      0.22284286	      1.19938439	     -1.25200695	      0.15502289	      1.19938439	     -1.03106455	      0.12595525	      1.00591620	     -0.95741708	      0.07750466	      0.76410563	     -0.88376961	      0.96886253	      5.58019088	     -6.55368194	      0.00000000	      0.00000000	     28.38356248	     -2.17891277	    -11.13318000	      7.88915107	     -8.18606144	     49.15295564	     46.30545190	     80.57113352	     -1.40227599	      7.53805361	      7.26998159	     -6.81157954	     50.03009302	     48.71138203	     87.76104138	     -6.45660533	     -5.99660383
      1.13559322	     -8.13909077	    -35.14638691	     84.19935142	      0.17019702	      0.97620339	      0.14275784	     49.18546410	     -3.65425283	      9.50628592	     25.33767352	      0.44222583	     41.50592661	     -6.09810430	      0.00000000	     42.32485327	      5.64947471	     -9.37833529	     13.32689126	      0.23259813	     38.38041371	      7.56579829	      0.00000000	      0.08188501	      0.45148798	     -1.32557962	      0.15206865	      0.60047901	     -1.40842834	      0.13452889	      1.09774787	     -1.40842834	      0.09358638	      1.09774787	     -1.15988216	      0.07603842	      0.92067429	     -1.07703344	      0.04678910	      0.69935488	     -0.99418471	      0.58489645	      5.10732232	     -7.37247615	      0.00000000	      0.00000000	     28.36877036	     -1.69051427	     -9.68438656	      8.54518261	     -8.16185644	     49.84055002	     47.08090602	     81.74121783	     -1.26701172	      8.04679173	      6.87154633	     -7.06766650	     48.40980833	     49.39404474	     87.89607871	     -6.07791455	     -6.08282898
      1.15254237	     -9.13552224	    -36.07771025	     83.66056878	      0.16950403	      0.97393781	      0.14695542	     50.36521738	     -4.37911141	      9.41706925	     25.08460101	      0.43780888	     41.31504052	     -5.76925429	      0.00000000	     43.70808648	      6.27482404	     -9.33014570	     13.19336277	      0.23026762	     38.24933833	      7.90059939	      0.00000000	      0.07556292	      0.42622195	     -1.43442648	      0.14032790	      0.56687519	     -1.52407813	      0.12414233	      1.03631604	     -1.52407813	      0.08636086	      1.03631604	     -1.25512317	      0.07016773	      0.86915179	     -1.16547151	      0.04317665	      0.66021779	     -1.07581986	      0.53973840	      4.82150790	     -7.97784975	      0.00000000	      0.00000000	     28.35829943	     -2.36865500	     -8.94719380	      8.98746473	     -8.36018933	     50.58766622	     47.89252670	     82.46606498	     -1.13073660	      8.44240155	      6.53801404	     -7.18170865	     47.51764219	     49.77607886	     87.85289712	     -5.90004796	     -6.05534946
      1.16949153	    -10.39249120	    -36.93089040	     82.84194251	      0.16897032	      0.97134798	      0.15097657	     51.59060406	     -5.25085061	      9.12527477	     25.04606772	      0.43713635	     41.32151157	     -4.77699895	      0.00000000	     45.06877542	      6.98228499	     -9.30331009	     13.15748613	      0.22964145	     38.00398137	      7.76139993	      0.00000000	      0.09265769	      0.37657511	     -1.56240014	      0.17207460	      0.50084490	     -1.66005015	      0.15222733	      0.91560473	     -1.66005015	      0.10589848	      0.91560473	     -1.36710012	      0.08604194	      0.76791197	     -1.26945011	      0.05294461	      0.58331485	     -1.17180010	      0.66184465	      4.25989300	     -8.68960085	      0.00000000	      0.00000000	     28.36495904	     -2.36737409	     -7.51310975	      9.51745066	     -8.39756225	     51.72175163	     48.46890340	     84.08443120	     -1.10656373	      9.27232055	      5.90019946	     -7.27663309	     46.03113789	     50.05155805	     88.03479267	     -5.11908372	     -5.18223350
